<?xml version="1.0" encoding="utf-8"?>
<!-- Generator: Adobe Illustrator 23.0.3, SVG Export Plug-In . SVG Version: 6.00 Build 0)  -->
<svg version="1.1" id="Icons" xmlns="http://www.w3.org/2000/svg" xmlns:xlink="http://www.w3.org/1999/xlink" x="0px" y="0px"
	 viewBox="0 0 32 32" style="enable-background:new 0 0 32 32;" xml:space="preserve">
<style type="text/css">
	.st0{fill:none;stroke:#000000;stroke-width:2;stroke-linecap:round;stroke-linejoin:round;stroke-miterlimit:10;}
</style>
<g>
	<path d="M14.1,14.7L14.1,14.7c0,4.8-2.1,9.3-5.8,12.2l-1.7,1.3c-0.4,0.3-0.5,0.8-0.2,1.3C6.6,29.8,6.9,30,7.3,30
		c0.1,0,0.2,0,0.3-0.1l4.1-1.5c5.9-2.2,10.1-7.5,11.1-13.8C19.9,13.8,17,13.8,14.1,14.7z"/>
	<path d="M20,7.7c0.1-1.5,1-2.9,2.3-3.9c0.4-0.3,0.5-1,0.2-1.4c-0.3-0.4-1-0.5-1.4-0.2c-1.8,1.3-3,3.2-3.1,5.3c-2.2,0.3-4,2.2-4,4.5
		v0.6c2.9-0.8,6-0.8,8.9,0c0-0.2,0-0.4,0-0.6C23,10,21.8,8.3,20,7.7z"/>
</g>
</svg>
